<mxfile host="app.diagrams.net" modified="2023-11-24T08:33:36.143Z" agent="Mozilla/5.0 (X11; Linux x86_64) AppleWebKit/537.36 (KHTML, like Gecko) Chrome/118.0.0.0 Safari/537.36" etag="6sd0y8wBGjftueIT4GIW" version="22.1.3" type="github">
  <diagram name="Page-1" id="a7904f86-f2b4-8e86-fa97-74104820619b">
    <mxGraphModel dx="2104" dy="1062" grid="1" gridSize="10" guides="1" tooltips="1" connect="1" arrows="1" fold="1" page="1" pageScale="1" pageWidth="1100" pageHeight="850" background="none" math="0" shadow="0">
      <root>
        <mxCell id="0" />
        <mxCell id="1" parent="0" />
        <mxCell id="mOd07g0bFqgFP3B_NyHc-6" value="" style="edgeStyle=entityRelationEdgeStyle;fontSize=12;html=1;endArrow=ERzeroToMany;startArrow=ERmandOne;rounded=0;exitX=1;exitY=0.5;exitDx=0;exitDy=0;entryX=0;entryY=0.5;entryDx=0;entryDy=0;" edge="1" parent="1" source="mOd07g0bFqgFP3B_NyHc-37" target="mOd07g0bFqgFP3B_NyHc-47">
          <mxGeometry width="100" height="100" relative="1" as="geometry">
            <mxPoint x="120" y="680" as="sourcePoint" />
            <mxPoint x="240" y="750" as="targetPoint" />
          </mxGeometry>
        </mxCell>
        <mxCell id="mOd07g0bFqgFP3B_NyHc-8" value="Tom: Should a vertex have at most one building?" style="text;html=1;strokeColor=none;fillColor=none;align=center;verticalAlign=middle;whiteSpace=wrap;rounded=0;" vertex="1" parent="1">
          <mxGeometry x="20" y="510" width="165" height="40" as="geometry" />
        </mxCell>
        <mxCell id="mOd07g0bFqgFP3B_NyHc-10" value="" style="edgeStyle=entityRelationEdgeStyle;fontSize=12;html=1;endArrow=ERzeroToOne;startArrow=ERmandOne;rounded=0;entryX=0;entryY=0.5;entryDx=0;entryDy=0;exitX=1;exitY=0.5;exitDx=0;exitDy=0;" edge="1" parent="1" source="mOd07g0bFqgFP3B_NyHc-37" target="mOd07g0bFqgFP3B_NyHc-60">
          <mxGeometry width="100" height="100" relative="1" as="geometry">
            <mxPoint x="120" y="680" as="sourcePoint" />
            <mxPoint x="240" y="480.0000000000001" as="targetPoint" />
          </mxGeometry>
        </mxCell>
        <mxCell id="mOd07g0bFqgFP3B_NyHc-14" value="Tom: Also note that the early generated diagram only has this kind of crow&#39;s foot notation due to the fact that it just naively represent only the foreign key constraints as opposed to including other constraints such as when a foreign key is also a primary key." style="text;html=1;strokeColor=none;fillColor=none;align=center;verticalAlign=middle;whiteSpace=wrap;rounded=0;" vertex="1" parent="1">
          <mxGeometry x="50" y="20" width="230" height="100" as="geometry" />
        </mxCell>
        <mxCell id="mOd07g0bFqgFP3B_NyHc-15" value="" style="edgeStyle=entityRelationEdgeStyle;fontSize=12;html=1;endArrow=ERzeroToMany;startArrow=ERmandOne;rounded=0;" edge="1" parent="1">
          <mxGeometry width="100" height="100" relative="1" as="geometry">
            <mxPoint x="290" y="60" as="sourcePoint" />
            <mxPoint x="380" y="80" as="targetPoint" />
            <Array as="points">
              <mxPoint x="350" y="80" />
            </Array>
          </mxGeometry>
        </mxCell>
        <mxCell id="mOd07g0bFqgFP3B_NyHc-18" value="" style="edgeStyle=entityRelationEdgeStyle;fontSize=12;html=1;endArrow=ERzeroToOne;startArrow=ERmandOne;rounded=0;exitX=1;exitY=0.5;exitDx=0;exitDy=0;entryX=0;entryY=0.5;entryDx=0;entryDy=0;" edge="1" parent="1" source="mOd07g0bFqgFP3B_NyHc-60" target="mOd07g0bFqgFP3B_NyHc-103">
          <mxGeometry width="100" height="100" relative="1" as="geometry">
            <mxPoint x="360" y="480.0000000000001" as="sourcePoint" />
            <mxPoint x="450" y="519.9" as="targetPoint" />
          </mxGeometry>
        </mxCell>
        <mxCell id="mOd07g0bFqgFP3B_NyHc-19" value="" style="edgeStyle=entityRelationEdgeStyle;fontSize=12;html=1;endArrow=ERzeroToMany;startArrow=ERmandOne;rounded=0;exitX=1;exitY=0.5;exitDx=0;exitDy=0;entryX=0;entryY=0.5;entryDx=0;entryDy=0;" edge="1" parent="1" source="mOd07g0bFqgFP3B_NyHc-37" target="mOd07g0bFqgFP3B_NyHc-50">
          <mxGeometry width="100" height="100" relative="1" as="geometry">
            <mxPoint x="119.99999999999989" y="681" as="sourcePoint" />
            <mxPoint x="240" y="764.3999999999999" as="targetPoint" />
            <Array as="points">
              <mxPoint x="210" y="780" />
            </Array>
          </mxGeometry>
        </mxCell>
        <mxCell id="mOd07g0bFqgFP3B_NyHc-20" value="" style="edgeStyle=entityRelationEdgeStyle;fontSize=12;html=1;endArrow=ERzeroToMany;startArrow=ERmandOne;rounded=0;exitX=1;exitY=0.5;exitDx=0;exitDy=0;entryX=0;entryY=0.5;entryDx=0;entryDy=0;" edge="1" parent="1" source="mOd07g0bFqgFP3B_NyHc-70" target="mOd07g0bFqgFP3B_NyHc-106">
          <mxGeometry width="100" height="100" relative="1" as="geometry">
            <mxPoint x="360" y="620" as="sourcePoint" />
            <mxPoint x="450" y="533.1999999999998" as="targetPoint" />
            <Array as="points">
              <mxPoint x="440" y="340" />
              <mxPoint x="440" y="340" />
              <mxPoint x="430" y="330" />
            </Array>
          </mxGeometry>
        </mxCell>
        <mxCell id="mOd07g0bFqgFP3B_NyHc-23" value="Tom: I think we forgot about that the working hours is determined by occupation." style="text;html=1;strokeColor=none;fillColor=none;align=center;verticalAlign=middle;whiteSpace=wrap;rounded=0;" vertex="1" parent="1">
          <mxGeometry x="30" y="330" width="165" height="40" as="geometry" />
        </mxCell>
        <mxCell id="mOd07g0bFqgFP3B_NyHc-33" value="vertex" style="shape=table;startSize=30;container=1;collapsible=1;childLayout=tableLayout;fixedRows=1;rowLines=0;fontStyle=1;align=center;resizeLast=1;html=1;rounded=0;shadow=0;labelBackgroundColor=none;comic=0;strokeColor=default;strokeWidth=1;verticalAlign=top;fontFamily=Helvetica;fontSize=12;fontColor=default;fillColor=default;" vertex="1" parent="1">
          <mxGeometry x="20" y="610" width="100" height="120" as="geometry" />
        </mxCell>
        <mxCell id="mOd07g0bFqgFP3B_NyHc-34" value="" style="shape=tableRow;horizontal=0;startSize=0;swimlaneHead=0;swimlaneBody=0;fillColor=none;collapsible=0;dropTarget=0;points=[[0,0.5],[1,0.5]];portConstraint=eastwest;top=0;left=0;right=0;bottom=1;rounded=0;shadow=0;labelBackgroundColor=none;comic=0;strokeColor=default;strokeWidth=1;align=left;verticalAlign=top;fontFamily=Helvetica;fontSize=12;fontColor=default;html=1;" vertex="1" parent="mOd07g0bFqgFP3B_NyHc-33">
          <mxGeometry y="30" width="100" height="30" as="geometry" />
        </mxCell>
        <mxCell id="mOd07g0bFqgFP3B_NyHc-35" value="PK" style="shape=partialRectangle;connectable=0;fillColor=none;top=0;left=0;bottom=0;right=0;fontStyle=1;overflow=hidden;whiteSpace=wrap;html=1;rounded=0;shadow=0;labelBackgroundColor=none;comic=0;strokeColor=default;strokeWidth=1;align=left;verticalAlign=top;fontFamily=Helvetica;fontSize=12;fontColor=default;" vertex="1" parent="mOd07g0bFqgFP3B_NyHc-34">
          <mxGeometry width="30" height="30" as="geometry">
            <mxRectangle width="30" height="30" as="alternateBounds" />
          </mxGeometry>
        </mxCell>
        <mxCell id="mOd07g0bFqgFP3B_NyHc-36" value="vertex_id" style="shape=partialRectangle;connectable=0;fillColor=none;top=0;left=0;bottom=0;right=0;align=left;spacingLeft=6;fontStyle=5;overflow=hidden;whiteSpace=wrap;html=1;rounded=0;shadow=0;labelBackgroundColor=none;comic=0;strokeColor=default;strokeWidth=1;verticalAlign=top;fontFamily=Helvetica;fontSize=12;fontColor=default;" vertex="1" parent="mOd07g0bFqgFP3B_NyHc-34">
          <mxGeometry x="30" width="70" height="30" as="geometry">
            <mxRectangle width="70" height="30" as="alternateBounds" />
          </mxGeometry>
        </mxCell>
        <mxCell id="mOd07g0bFqgFP3B_NyHc-37" value="" style="shape=tableRow;horizontal=0;startSize=0;swimlaneHead=0;swimlaneBody=0;fillColor=none;collapsible=0;dropTarget=0;points=[[0,0.5],[1,0.5]];portConstraint=eastwest;top=0;left=0;right=0;bottom=0;rounded=0;shadow=0;labelBackgroundColor=none;comic=0;strokeColor=default;strokeWidth=1;align=left;verticalAlign=top;fontFamily=Helvetica;fontSize=12;fontColor=default;html=1;" vertex="1" parent="mOd07g0bFqgFP3B_NyHc-33">
          <mxGeometry y="60" width="100" height="30" as="geometry" />
        </mxCell>
        <mxCell id="mOd07g0bFqgFP3B_NyHc-38" value="" style="shape=partialRectangle;connectable=0;fillColor=none;top=0;left=0;bottom=0;right=0;editable=1;overflow=hidden;whiteSpace=wrap;html=1;rounded=0;shadow=0;labelBackgroundColor=none;comic=0;strokeColor=default;strokeWidth=1;align=left;verticalAlign=top;fontFamily=Helvetica;fontSize=12;fontColor=default;" vertex="1" parent="mOd07g0bFqgFP3B_NyHc-37">
          <mxGeometry width="30" height="30" as="geometry">
            <mxRectangle width="30" height="30" as="alternateBounds" />
          </mxGeometry>
        </mxCell>
        <mxCell id="mOd07g0bFqgFP3B_NyHc-39" value="x" style="shape=partialRectangle;connectable=0;fillColor=none;top=0;left=0;bottom=0;right=0;align=left;spacingLeft=6;overflow=hidden;whiteSpace=wrap;html=1;rounded=0;shadow=0;labelBackgroundColor=none;comic=0;strokeColor=default;strokeWidth=1;verticalAlign=top;fontFamily=Helvetica;fontSize=12;fontColor=default;" vertex="1" parent="mOd07g0bFqgFP3B_NyHc-37">
          <mxGeometry x="30" width="70" height="30" as="geometry">
            <mxRectangle width="70" height="30" as="alternateBounds" />
          </mxGeometry>
        </mxCell>
        <mxCell id="mOd07g0bFqgFP3B_NyHc-40" value="" style="shape=tableRow;horizontal=0;startSize=0;swimlaneHead=0;swimlaneBody=0;fillColor=none;collapsible=0;dropTarget=0;points=[[0,0.5],[1,0.5]];portConstraint=eastwest;top=0;left=0;right=0;bottom=0;rounded=0;shadow=0;labelBackgroundColor=none;comic=0;strokeColor=default;strokeWidth=1;align=left;verticalAlign=top;fontFamily=Helvetica;fontSize=12;fontColor=default;html=1;" vertex="1" parent="mOd07g0bFqgFP3B_NyHc-33">
          <mxGeometry y="90" width="100" height="30" as="geometry" />
        </mxCell>
        <mxCell id="mOd07g0bFqgFP3B_NyHc-41" value="" style="shape=partialRectangle;connectable=0;fillColor=none;top=0;left=0;bottom=0;right=0;editable=1;overflow=hidden;whiteSpace=wrap;html=1;rounded=0;shadow=0;labelBackgroundColor=none;comic=0;strokeColor=default;strokeWidth=1;align=left;verticalAlign=top;fontFamily=Helvetica;fontSize=12;fontColor=default;" vertex="1" parent="mOd07g0bFqgFP3B_NyHc-40">
          <mxGeometry width="30" height="30" as="geometry">
            <mxRectangle width="30" height="30" as="alternateBounds" />
          </mxGeometry>
        </mxCell>
        <mxCell id="mOd07g0bFqgFP3B_NyHc-42" value="y" style="shape=partialRectangle;connectable=0;fillColor=none;top=0;left=0;bottom=0;right=0;align=left;spacingLeft=6;overflow=hidden;whiteSpace=wrap;html=1;rounded=0;shadow=0;labelBackgroundColor=none;comic=0;strokeColor=default;strokeWidth=1;verticalAlign=top;fontFamily=Helvetica;fontSize=12;fontColor=default;" vertex="1" parent="mOd07g0bFqgFP3B_NyHc-40">
          <mxGeometry x="30" width="70" height="30" as="geometry">
            <mxRectangle width="70" height="30" as="alternateBounds" />
          </mxGeometry>
        </mxCell>
        <mxCell id="mOd07g0bFqgFP3B_NyHc-46" value="edge" style="shape=table;startSize=30;container=1;collapsible=1;childLayout=tableLayout;fixedRows=1;rowLines=0;fontStyle=1;align=center;resizeLast=1;html=1;whiteSpace=wrap;rounded=0;shadow=0;labelBackgroundColor=none;comic=0;strokeColor=default;strokeWidth=1;verticalAlign=top;fontFamily=Helvetica;fontSize=12;fontColor=default;fillColor=default;" vertex="1" parent="1">
          <mxGeometry x="240" y="680" width="150" height="120" as="geometry" />
        </mxCell>
        <mxCell id="mOd07g0bFqgFP3B_NyHc-47" value="" style="shape=tableRow;horizontal=0;startSize=0;swimlaneHead=0;swimlaneBody=0;fillColor=none;collapsible=0;dropTarget=0;points=[[0,0.5],[1,0.5]];portConstraint=eastwest;top=0;left=0;right=0;bottom=0;html=1;rounded=0;shadow=0;labelBackgroundColor=none;comic=0;strokeColor=default;strokeWidth=1;align=left;verticalAlign=top;fontFamily=Helvetica;fontSize=12;fontColor=default;" vertex="1" parent="mOd07g0bFqgFP3B_NyHc-46">
          <mxGeometry y="30" width="150" height="30" as="geometry" />
        </mxCell>
        <mxCell id="mOd07g0bFqgFP3B_NyHc-48" value="PK,FK1" style="shape=partialRectangle;connectable=0;fillColor=none;top=0;left=0;bottom=0;right=0;fontStyle=1;overflow=hidden;html=1;whiteSpace=wrap;rounded=0;shadow=0;labelBackgroundColor=none;comic=0;strokeColor=default;strokeWidth=1;align=left;verticalAlign=top;fontFamily=Helvetica;fontSize=12;fontColor=default;" vertex="1" parent="mOd07g0bFqgFP3B_NyHc-47">
          <mxGeometry width="60" height="30" as="geometry">
            <mxRectangle width="60" height="30" as="alternateBounds" />
          </mxGeometry>
        </mxCell>
        <mxCell id="mOd07g0bFqgFP3B_NyHc-49" value="start" style="shape=partialRectangle;connectable=0;fillColor=none;top=0;left=0;bottom=0;right=0;align=left;spacingLeft=6;fontStyle=5;overflow=hidden;html=1;whiteSpace=wrap;rounded=0;shadow=0;labelBackgroundColor=none;comic=0;strokeColor=default;strokeWidth=1;verticalAlign=top;fontFamily=Helvetica;fontSize=12;fontColor=default;" vertex="1" parent="mOd07g0bFqgFP3B_NyHc-47">
          <mxGeometry x="60" width="90" height="30" as="geometry">
            <mxRectangle width="90" height="30" as="alternateBounds" />
          </mxGeometry>
        </mxCell>
        <mxCell id="mOd07g0bFqgFP3B_NyHc-50" value="" style="shape=tableRow;horizontal=0;startSize=0;swimlaneHead=0;swimlaneBody=0;fillColor=none;collapsible=0;dropTarget=0;points=[[0,0.5],[1,0.5]];portConstraint=eastwest;top=0;left=0;right=0;bottom=1;html=1;rounded=0;shadow=0;labelBackgroundColor=none;comic=0;strokeColor=default;strokeWidth=1;align=left;verticalAlign=top;fontFamily=Helvetica;fontSize=12;fontColor=default;" vertex="1" parent="mOd07g0bFqgFP3B_NyHc-46">
          <mxGeometry y="60" width="150" height="30" as="geometry" />
        </mxCell>
        <mxCell id="mOd07g0bFqgFP3B_NyHc-51" value="PK,FK2" style="shape=partialRectangle;connectable=0;fillColor=none;top=0;left=0;bottom=0;right=0;fontStyle=1;overflow=hidden;html=1;whiteSpace=wrap;rounded=0;shadow=0;labelBackgroundColor=none;comic=0;strokeColor=default;strokeWidth=1;align=left;verticalAlign=top;fontFamily=Helvetica;fontSize=12;fontColor=default;" vertex="1" parent="mOd07g0bFqgFP3B_NyHc-50">
          <mxGeometry width="60" height="30" as="geometry">
            <mxRectangle width="60" height="30" as="alternateBounds" />
          </mxGeometry>
        </mxCell>
        <mxCell id="mOd07g0bFqgFP3B_NyHc-52" value="end" style="shape=partialRectangle;connectable=0;fillColor=none;top=0;left=0;bottom=0;right=0;align=left;spacingLeft=6;fontStyle=5;overflow=hidden;html=1;whiteSpace=wrap;rounded=0;shadow=0;labelBackgroundColor=none;comic=0;strokeColor=default;strokeWidth=1;verticalAlign=top;fontFamily=Helvetica;fontSize=12;fontColor=default;" vertex="1" parent="mOd07g0bFqgFP3B_NyHc-50">
          <mxGeometry x="60" width="90" height="30" as="geometry">
            <mxRectangle width="90" height="30" as="alternateBounds" />
          </mxGeometry>
        </mxCell>
        <mxCell id="mOd07g0bFqgFP3B_NyHc-53" value="" style="shape=tableRow;horizontal=0;startSize=0;swimlaneHead=0;swimlaneBody=0;fillColor=none;collapsible=0;dropTarget=0;points=[[0,0.5],[1,0.5]];portConstraint=eastwest;top=0;left=0;right=0;bottom=0;html=1;rounded=0;shadow=0;labelBackgroundColor=none;comic=0;strokeColor=default;strokeWidth=1;align=left;verticalAlign=top;fontFamily=Helvetica;fontSize=12;fontColor=default;" vertex="1" parent="mOd07g0bFqgFP3B_NyHc-46">
          <mxGeometry y="90" width="150" height="30" as="geometry" />
        </mxCell>
        <mxCell id="mOd07g0bFqgFP3B_NyHc-54" value="" style="shape=partialRectangle;connectable=0;fillColor=none;top=0;left=0;bottom=0;right=0;editable=1;overflow=hidden;html=1;whiteSpace=wrap;rounded=0;shadow=0;labelBackgroundColor=none;comic=0;strokeColor=default;strokeWidth=1;align=left;verticalAlign=top;fontFamily=Helvetica;fontSize=12;fontColor=default;" vertex="1" parent="mOd07g0bFqgFP3B_NyHc-53">
          <mxGeometry width="60" height="30" as="geometry">
            <mxRectangle width="60" height="30" as="alternateBounds" />
          </mxGeometry>
        </mxCell>
        <mxCell id="mOd07g0bFqgFP3B_NyHc-55" value="cost_minute" style="shape=partialRectangle;connectable=0;fillColor=none;top=0;left=0;bottom=0;right=0;align=left;spacingLeft=6;overflow=hidden;html=1;whiteSpace=wrap;rounded=0;shadow=0;labelBackgroundColor=none;comic=0;strokeColor=default;strokeWidth=1;verticalAlign=top;fontFamily=Helvetica;fontSize=12;fontColor=default;" vertex="1" parent="mOd07g0bFqgFP3B_NyHc-53">
          <mxGeometry x="60" width="90" height="30" as="geometry">
            <mxRectangle width="90" height="30" as="alternateBounds" />
          </mxGeometry>
        </mxCell>
        <mxCell id="mOd07g0bFqgFP3B_NyHc-59" value="building" style="shape=table;startSize=30;container=1;collapsible=1;childLayout=tableLayout;fixedRows=1;rowLines=0;fontStyle=1;align=center;resizeLast=1;html=1;rounded=0;shadow=0;labelBackgroundColor=none;comic=0;strokeColor=default;strokeWidth=1;verticalAlign=top;fontFamily=Helvetica;fontSize=12;fontColor=default;fillColor=default;" vertex="1" parent="1">
          <mxGeometry x="240" y="360" width="120" height="120" as="geometry" />
        </mxCell>
        <mxCell id="mOd07g0bFqgFP3B_NyHc-60" value="" style="shape=tableRow;horizontal=0;startSize=0;swimlaneHead=0;swimlaneBody=0;fillColor=none;collapsible=0;dropTarget=0;points=[[0,0.5],[1,0.5]];portConstraint=eastwest;top=0;left=0;right=0;bottom=1;rounded=0;shadow=0;labelBackgroundColor=none;comic=0;strokeColor=default;strokeWidth=1;align=left;verticalAlign=top;fontFamily=Helvetica;fontSize=12;fontColor=default;html=1;" vertex="1" parent="mOd07g0bFqgFP3B_NyHc-59">
          <mxGeometry y="30" width="120" height="30" as="geometry" />
        </mxCell>
        <mxCell id="mOd07g0bFqgFP3B_NyHc-61" value="PK" style="shape=partialRectangle;connectable=0;fillColor=none;top=0;left=0;bottom=0;right=0;fontStyle=1;overflow=hidden;whiteSpace=wrap;html=1;rounded=0;shadow=0;labelBackgroundColor=none;comic=0;strokeColor=default;strokeWidth=1;align=left;verticalAlign=top;fontFamily=Helvetica;fontSize=12;fontColor=default;" vertex="1" parent="mOd07g0bFqgFP3B_NyHc-60">
          <mxGeometry width="30" height="30" as="geometry">
            <mxRectangle width="30" height="30" as="alternateBounds" />
          </mxGeometry>
        </mxCell>
        <mxCell id="mOd07g0bFqgFP3B_NyHc-62" value="building_id" style="shape=partialRectangle;connectable=0;fillColor=none;top=0;left=0;bottom=0;right=0;align=left;spacingLeft=6;fontStyle=5;overflow=hidden;whiteSpace=wrap;html=1;rounded=0;shadow=0;labelBackgroundColor=none;comic=0;strokeColor=default;strokeWidth=1;verticalAlign=top;fontFamily=Helvetica;fontSize=12;fontColor=default;" vertex="1" parent="mOd07g0bFqgFP3B_NyHc-60">
          <mxGeometry x="30" width="90" height="30" as="geometry">
            <mxRectangle width="90" height="30" as="alternateBounds" />
          </mxGeometry>
        </mxCell>
        <mxCell id="mOd07g0bFqgFP3B_NyHc-63" value="" style="shape=tableRow;horizontal=0;startSize=0;swimlaneHead=0;swimlaneBody=0;fillColor=none;collapsible=0;dropTarget=0;points=[[0,0.5],[1,0.5]];portConstraint=eastwest;top=0;left=0;right=0;bottom=0;rounded=0;shadow=0;labelBackgroundColor=none;comic=0;strokeColor=default;strokeWidth=1;align=left;verticalAlign=top;fontFamily=Helvetica;fontSize=12;fontColor=default;html=1;" vertex="1" parent="mOd07g0bFqgFP3B_NyHc-59">
          <mxGeometry y="60" width="120" height="30" as="geometry" />
        </mxCell>
        <mxCell id="mOd07g0bFqgFP3B_NyHc-64" value="" style="shape=partialRectangle;connectable=0;fillColor=none;top=0;left=0;bottom=0;right=0;editable=1;overflow=hidden;whiteSpace=wrap;html=1;rounded=0;shadow=0;labelBackgroundColor=none;comic=0;strokeColor=default;strokeWidth=1;align=left;verticalAlign=top;fontFamily=Helvetica;fontSize=12;fontColor=default;" vertex="1" parent="mOd07g0bFqgFP3B_NyHc-63">
          <mxGeometry width="30" height="30" as="geometry">
            <mxRectangle width="30" height="30" as="alternateBounds" />
          </mxGeometry>
        </mxCell>
        <mxCell id="mOd07g0bFqgFP3B_NyHc-65" value="building_name" style="shape=partialRectangle;connectable=0;fillColor=none;top=0;left=0;bottom=0;right=0;align=left;spacingLeft=6;overflow=hidden;whiteSpace=wrap;html=1;rounded=0;shadow=0;labelBackgroundColor=none;comic=0;strokeColor=default;strokeWidth=1;verticalAlign=top;fontFamily=Helvetica;fontSize=12;fontColor=default;" vertex="1" parent="mOd07g0bFqgFP3B_NyHc-63">
          <mxGeometry x="30" width="90" height="30" as="geometry">
            <mxRectangle width="90" height="30" as="alternateBounds" />
          </mxGeometry>
        </mxCell>
        <mxCell id="mOd07g0bFqgFP3B_NyHc-66" value="" style="shape=tableRow;horizontal=0;startSize=0;swimlaneHead=0;swimlaneBody=0;fillColor=none;collapsible=0;dropTarget=0;points=[[0,0.5],[1,0.5]];portConstraint=eastwest;top=0;left=0;right=0;bottom=0;rounded=0;shadow=0;labelBackgroundColor=none;comic=0;strokeColor=default;strokeWidth=1;align=left;verticalAlign=top;fontFamily=Helvetica;fontSize=12;fontColor=default;html=1;" vertex="1" parent="mOd07g0bFqgFP3B_NyHc-59">
          <mxGeometry y="90" width="120" height="30" as="geometry" />
        </mxCell>
        <mxCell id="mOd07g0bFqgFP3B_NyHc-67" value="" style="shape=partialRectangle;connectable=0;fillColor=none;top=0;left=0;bottom=0;right=0;editable=1;overflow=hidden;whiteSpace=wrap;html=1;rounded=0;shadow=0;labelBackgroundColor=none;comic=0;strokeColor=default;strokeWidth=1;align=left;verticalAlign=top;fontFamily=Helvetica;fontSize=12;fontColor=default;" vertex="1" parent="mOd07g0bFqgFP3B_NyHc-66">
          <mxGeometry width="30" height="30" as="geometry">
            <mxRectangle width="30" height="30" as="alternateBounds" />
          </mxGeometry>
        </mxCell>
        <mxCell id="mOd07g0bFqgFP3B_NyHc-68" value="lockdown" style="shape=partialRectangle;connectable=0;fillColor=none;top=0;left=0;bottom=0;right=0;align=left;spacingLeft=6;overflow=hidden;whiteSpace=wrap;html=1;rounded=0;shadow=0;labelBackgroundColor=none;comic=0;strokeColor=default;strokeWidth=1;verticalAlign=top;fontFamily=Helvetica;fontSize=12;fontColor=default;" vertex="1" parent="mOd07g0bFqgFP3B_NyHc-66">
          <mxGeometry x="30" width="90" height="30" as="geometry">
            <mxRectangle width="90" height="30" as="alternateBounds" />
          </mxGeometry>
        </mxCell>
        <mxCell id="mOd07g0bFqgFP3B_NyHc-69" value="income_range" style="shape=table;startSize=30;container=1;collapsible=1;childLayout=tableLayout;fixedRows=1;rowLines=0;fontStyle=1;align=center;resizeLast=1;html=1;rounded=0;shadow=0;labelBackgroundColor=none;comic=0;strokeColor=default;strokeWidth=1;verticalAlign=top;fontFamily=Helvetica;fontSize=12;fontColor=default;fillColor=default;" vertex="1" parent="1">
          <mxGeometry x="240" y="520" width="120" height="120" as="geometry" />
        </mxCell>
        <mxCell id="mOd07g0bFqgFP3B_NyHc-70" value="" style="shape=tableRow;horizontal=0;startSize=0;swimlaneHead=0;swimlaneBody=0;fillColor=none;collapsible=0;dropTarget=0;points=[[0,0.5],[1,0.5]];portConstraint=eastwest;top=0;left=0;right=0;bottom=1;rounded=0;shadow=0;labelBackgroundColor=none;comic=0;strokeColor=default;strokeWidth=1;align=left;verticalAlign=top;fontFamily=Helvetica;fontSize=12;fontColor=default;html=1;" vertex="1" parent="mOd07g0bFqgFP3B_NyHc-69">
          <mxGeometry y="30" width="120" height="30" as="geometry" />
        </mxCell>
        <mxCell id="mOd07g0bFqgFP3B_NyHc-71" value="PK" style="shape=partialRectangle;connectable=0;fillColor=none;top=0;left=0;bottom=0;right=0;fontStyle=1;overflow=hidden;whiteSpace=wrap;html=1;rounded=0;shadow=0;labelBackgroundColor=none;comic=0;strokeColor=default;strokeWidth=1;align=left;verticalAlign=top;fontFamily=Helvetica;fontSize=12;fontColor=default;" vertex="1" parent="mOd07g0bFqgFP3B_NyHc-70">
          <mxGeometry width="30" height="30" as="geometry">
            <mxRectangle width="30" height="30" as="alternateBounds" />
          </mxGeometry>
        </mxCell>
        <mxCell id="mOd07g0bFqgFP3B_NyHc-72" value="income_level" style="shape=partialRectangle;connectable=0;fillColor=none;top=0;left=0;bottom=0;right=0;align=left;spacingLeft=6;fontStyle=5;overflow=hidden;whiteSpace=wrap;html=1;rounded=0;shadow=0;labelBackgroundColor=none;comic=0;strokeColor=default;strokeWidth=1;verticalAlign=top;fontFamily=Helvetica;fontSize=12;fontColor=default;" vertex="1" parent="mOd07g0bFqgFP3B_NyHc-70">
          <mxGeometry x="30" width="90" height="30" as="geometry">
            <mxRectangle width="90" height="30" as="alternateBounds" />
          </mxGeometry>
        </mxCell>
        <mxCell id="mOd07g0bFqgFP3B_NyHc-73" value="" style="shape=tableRow;horizontal=0;startSize=0;swimlaneHead=0;swimlaneBody=0;fillColor=none;collapsible=0;dropTarget=0;points=[[0,0.5],[1,0.5]];portConstraint=eastwest;top=0;left=0;right=0;bottom=0;rounded=0;shadow=0;labelBackgroundColor=none;comic=0;strokeColor=default;strokeWidth=1;align=left;verticalAlign=top;fontFamily=Helvetica;fontSize=12;fontColor=default;html=1;" vertex="1" parent="mOd07g0bFqgFP3B_NyHc-69">
          <mxGeometry y="60" width="120" height="30" as="geometry" />
        </mxCell>
        <mxCell id="mOd07g0bFqgFP3B_NyHc-74" value="" style="shape=partialRectangle;connectable=0;fillColor=none;top=0;left=0;bottom=0;right=0;editable=1;overflow=hidden;whiteSpace=wrap;html=1;rounded=0;shadow=0;labelBackgroundColor=none;comic=0;strokeColor=default;strokeWidth=1;align=left;verticalAlign=top;fontFamily=Helvetica;fontSize=12;fontColor=default;" vertex="1" parent="mOd07g0bFqgFP3B_NyHc-73">
          <mxGeometry width="30" height="30" as="geometry">
            <mxRectangle width="30" height="30" as="alternateBounds" />
          </mxGeometry>
        </mxCell>
        <mxCell id="mOd07g0bFqgFP3B_NyHc-75" value="low" style="shape=partialRectangle;connectable=0;fillColor=none;top=0;left=0;bottom=0;right=0;align=left;spacingLeft=6;overflow=hidden;whiteSpace=wrap;html=1;rounded=0;shadow=0;labelBackgroundColor=none;comic=0;strokeColor=default;strokeWidth=1;verticalAlign=top;fontFamily=Helvetica;fontSize=12;fontColor=default;" vertex="1" parent="mOd07g0bFqgFP3B_NyHc-73">
          <mxGeometry x="30" width="90" height="30" as="geometry">
            <mxRectangle width="90" height="30" as="alternateBounds" />
          </mxGeometry>
        </mxCell>
        <mxCell id="mOd07g0bFqgFP3B_NyHc-76" value="" style="shape=tableRow;horizontal=0;startSize=0;swimlaneHead=0;swimlaneBody=0;fillColor=none;collapsible=0;dropTarget=0;points=[[0,0.5],[1,0.5]];portConstraint=eastwest;top=0;left=0;right=0;bottom=0;rounded=0;shadow=0;labelBackgroundColor=none;comic=0;strokeColor=default;strokeWidth=1;align=left;verticalAlign=top;fontFamily=Helvetica;fontSize=12;fontColor=default;html=1;" vertex="1" parent="mOd07g0bFqgFP3B_NyHc-69">
          <mxGeometry y="90" width="120" height="30" as="geometry" />
        </mxCell>
        <mxCell id="mOd07g0bFqgFP3B_NyHc-77" value="" style="shape=partialRectangle;connectable=0;fillColor=none;top=0;left=0;bottom=0;right=0;editable=1;overflow=hidden;whiteSpace=wrap;html=1;rounded=0;shadow=0;labelBackgroundColor=none;comic=0;strokeColor=default;strokeWidth=1;align=left;verticalAlign=top;fontFamily=Helvetica;fontSize=12;fontColor=default;" vertex="1" parent="mOd07g0bFqgFP3B_NyHc-76">
          <mxGeometry width="30" height="30" as="geometry">
            <mxRectangle width="30" height="30" as="alternateBounds" />
          </mxGeometry>
        </mxCell>
        <mxCell id="mOd07g0bFqgFP3B_NyHc-78" value="high" style="shape=partialRectangle;connectable=0;fillColor=none;top=0;left=0;bottom=0;right=0;align=left;spacingLeft=6;overflow=hidden;whiteSpace=wrap;html=1;rounded=0;shadow=0;labelBackgroundColor=none;comic=0;strokeColor=default;strokeWidth=1;verticalAlign=top;fontFamily=Helvetica;fontSize=12;fontColor=default;" vertex="1" parent="mOd07g0bFqgFP3B_NyHc-76">
          <mxGeometry x="30" width="90" height="30" as="geometry">
            <mxRectangle width="90" height="30" as="alternateBounds" />
          </mxGeometry>
        </mxCell>
        <mxCell id="mOd07g0bFqgFP3B_NyHc-79" value="occupation" style="shape=table;startSize=30;container=1;collapsible=1;childLayout=tableLayout;fixedRows=1;rowLines=0;fontStyle=1;align=center;resizeLast=1;html=1;rounded=0;shadow=0;labelBackgroundColor=none;comic=0;strokeColor=default;strokeWidth=1;verticalAlign=top;fontFamily=Helvetica;fontSize=12;fontColor=default;fillColor=default;" vertex="1" parent="1">
          <mxGeometry x="240" y="200" width="140" height="120" as="geometry" />
        </mxCell>
        <mxCell id="mOd07g0bFqgFP3B_NyHc-80" value="" style="shape=tableRow;horizontal=0;startSize=0;swimlaneHead=0;swimlaneBody=0;fillColor=none;collapsible=0;dropTarget=0;points=[[0,0.5],[1,0.5]];portConstraint=eastwest;top=0;left=0;right=0;bottom=1;rounded=0;shadow=0;labelBackgroundColor=none;comic=0;strokeColor=default;strokeWidth=1;align=left;verticalAlign=top;fontFamily=Helvetica;fontSize=12;fontColor=default;html=1;" vertex="1" parent="mOd07g0bFqgFP3B_NyHc-79">
          <mxGeometry y="30" width="140" height="30" as="geometry" />
        </mxCell>
        <mxCell id="mOd07g0bFqgFP3B_NyHc-81" value="PK" style="shape=partialRectangle;connectable=0;fillColor=none;top=0;left=0;bottom=0;right=0;fontStyle=1;overflow=hidden;whiteSpace=wrap;html=1;rounded=0;shadow=0;labelBackgroundColor=none;comic=0;strokeColor=default;strokeWidth=1;align=left;verticalAlign=top;fontFamily=Helvetica;fontSize=12;fontColor=default;" vertex="1" parent="mOd07g0bFqgFP3B_NyHc-80">
          <mxGeometry width="30" height="30" as="geometry">
            <mxRectangle width="30" height="30" as="alternateBounds" />
          </mxGeometry>
        </mxCell>
        <mxCell id="mOd07g0bFqgFP3B_NyHc-82" value="occupation_id" style="shape=partialRectangle;connectable=0;fillColor=none;top=0;left=0;bottom=0;right=0;align=left;spacingLeft=6;fontStyle=5;overflow=hidden;whiteSpace=wrap;html=1;rounded=0;shadow=0;labelBackgroundColor=none;comic=0;strokeColor=default;strokeWidth=1;verticalAlign=top;fontFamily=Helvetica;fontSize=12;fontColor=default;" vertex="1" parent="mOd07g0bFqgFP3B_NyHc-80">
          <mxGeometry x="30" width="110" height="30" as="geometry">
            <mxRectangle width="110" height="30" as="alternateBounds" />
          </mxGeometry>
        </mxCell>
        <mxCell id="mOd07g0bFqgFP3B_NyHc-83" value="" style="shape=tableRow;horizontal=0;startSize=0;swimlaneHead=0;swimlaneBody=0;fillColor=none;collapsible=0;dropTarget=0;points=[[0,0.5],[1,0.5]];portConstraint=eastwest;top=0;left=0;right=0;bottom=0;rounded=0;shadow=0;labelBackgroundColor=none;comic=0;strokeColor=default;strokeWidth=1;align=left;verticalAlign=top;fontFamily=Helvetica;fontSize=12;fontColor=default;html=1;" vertex="1" parent="mOd07g0bFqgFP3B_NyHc-79">
          <mxGeometry y="60" width="140" height="30" as="geometry" />
        </mxCell>
        <mxCell id="mOd07g0bFqgFP3B_NyHc-84" value="" style="shape=partialRectangle;connectable=0;fillColor=none;top=0;left=0;bottom=0;right=0;editable=1;overflow=hidden;whiteSpace=wrap;html=1;rounded=0;shadow=0;labelBackgroundColor=none;comic=0;strokeColor=default;strokeWidth=1;align=left;verticalAlign=top;fontFamily=Helvetica;fontSize=12;fontColor=default;" vertex="1" parent="mOd07g0bFqgFP3B_NyHc-83">
          <mxGeometry width="30" height="30" as="geometry">
            <mxRectangle width="30" height="30" as="alternateBounds" />
          </mxGeometry>
        </mxCell>
        <mxCell id="mOd07g0bFqgFP3B_NyHc-85" value="occupation_name" style="shape=partialRectangle;connectable=0;fillColor=none;top=0;left=0;bottom=0;right=0;align=left;spacingLeft=6;overflow=hidden;whiteSpace=wrap;html=1;rounded=0;shadow=0;labelBackgroundColor=none;comic=0;strokeColor=default;strokeWidth=1;verticalAlign=top;fontFamily=Helvetica;fontSize=12;fontColor=default;" vertex="1" parent="mOd07g0bFqgFP3B_NyHc-83">
          <mxGeometry x="30" width="110" height="30" as="geometry">
            <mxRectangle width="110" height="30" as="alternateBounds" />
          </mxGeometry>
        </mxCell>
        <mxCell id="mOd07g0bFqgFP3B_NyHc-86" value="" style="shape=tableRow;horizontal=0;startSize=0;swimlaneHead=0;swimlaneBody=0;fillColor=none;collapsible=0;dropTarget=0;points=[[0,0.5],[1,0.5]];portConstraint=eastwest;top=0;left=0;right=0;bottom=0;rounded=0;shadow=0;labelBackgroundColor=none;comic=0;strokeColor=default;strokeWidth=1;align=left;verticalAlign=top;fontFamily=Helvetica;fontSize=12;fontColor=default;html=1;" vertex="1" parent="mOd07g0bFqgFP3B_NyHc-79">
          <mxGeometry y="90" width="140" height="30" as="geometry" />
        </mxCell>
        <mxCell id="mOd07g0bFqgFP3B_NyHc-87" value="" style="shape=partialRectangle;connectable=0;fillColor=none;top=0;left=0;bottom=0;right=0;editable=1;overflow=hidden;whiteSpace=wrap;html=1;rounded=0;shadow=0;labelBackgroundColor=none;comic=0;strokeColor=default;strokeWidth=1;align=left;verticalAlign=top;fontFamily=Helvetica;fontSize=12;fontColor=default;" vertex="1" parent="mOd07g0bFqgFP3B_NyHc-86">
          <mxGeometry width="30" height="30" as="geometry">
            <mxRectangle width="30" height="30" as="alternateBounds" />
          </mxGeometry>
        </mxCell>
        <mxCell id="mOd07g0bFqgFP3B_NyHc-88" value="income" style="shape=partialRectangle;connectable=0;fillColor=none;top=0;left=0;bottom=0;right=0;align=left;spacingLeft=6;overflow=hidden;whiteSpace=wrap;html=1;rounded=0;shadow=0;labelBackgroundColor=none;comic=0;strokeColor=default;strokeWidth=1;verticalAlign=top;fontFamily=Helvetica;fontSize=12;fontColor=default;" vertex="1" parent="mOd07g0bFqgFP3B_NyHc-86">
          <mxGeometry x="30" width="110" height="30" as="geometry">
            <mxRectangle width="110" height="30" as="alternateBounds" />
          </mxGeometry>
        </mxCell>
        <mxCell id="mOd07g0bFqgFP3B_NyHc-99" value="home" style="shape=table;startSize=30;container=1;collapsible=1;childLayout=tableLayout;fixedRows=1;rowLines=0;fontStyle=1;align=center;resizeLast=1;html=1;whiteSpace=wrap;rounded=0;shadow=0;labelBackgroundColor=none;comic=0;strokeColor=default;strokeWidth=1;verticalAlign=top;fontFamily=Helvetica;fontSize=12;fontColor=default;fillColor=default;" vertex="1" parent="1">
          <mxGeometry x="440" y="480" width="180" height="90" as="geometry" />
        </mxCell>
        <mxCell id="mOd07g0bFqgFP3B_NyHc-103" value="" style="shape=tableRow;horizontal=0;startSize=0;swimlaneHead=0;swimlaneBody=0;fillColor=none;collapsible=0;dropTarget=0;points=[[0,0.5],[1,0.5]];portConstraint=eastwest;top=0;left=0;right=0;bottom=1;html=1;rounded=0;shadow=0;labelBackgroundColor=none;comic=0;strokeColor=default;strokeWidth=1;align=left;verticalAlign=top;fontFamily=Helvetica;fontSize=12;fontColor=default;" vertex="1" parent="mOd07g0bFqgFP3B_NyHc-99">
          <mxGeometry y="30" width="180" height="30" as="geometry" />
        </mxCell>
        <mxCell id="mOd07g0bFqgFP3B_NyHc-104" value="PK,FK1" style="shape=partialRectangle;connectable=0;fillColor=none;top=0;left=0;bottom=0;right=0;fontStyle=1;overflow=hidden;html=1;whiteSpace=wrap;rounded=0;shadow=0;labelBackgroundColor=none;comic=0;strokeColor=default;strokeWidth=1;align=left;verticalAlign=top;fontFamily=Helvetica;fontSize=12;fontColor=default;" vertex="1" parent="mOd07g0bFqgFP3B_NyHc-103">
          <mxGeometry width="60" height="30" as="geometry">
            <mxRectangle width="60" height="30" as="alternateBounds" />
          </mxGeometry>
        </mxCell>
        <mxCell id="mOd07g0bFqgFP3B_NyHc-105" value="home_building_id" style="shape=partialRectangle;connectable=0;fillColor=none;top=0;left=0;bottom=0;right=0;align=left;spacingLeft=6;fontStyle=5;overflow=hidden;html=1;whiteSpace=wrap;rounded=0;shadow=0;labelBackgroundColor=none;comic=0;strokeColor=default;strokeWidth=1;verticalAlign=top;fontFamily=Helvetica;fontSize=12;fontColor=default;" vertex="1" parent="mOd07g0bFqgFP3B_NyHc-103">
          <mxGeometry x="60" width="120" height="30" as="geometry">
            <mxRectangle width="120" height="30" as="alternateBounds" />
          </mxGeometry>
        </mxCell>
        <mxCell id="mOd07g0bFqgFP3B_NyHc-106" value="" style="shape=tableRow;horizontal=0;startSize=0;swimlaneHead=0;swimlaneBody=0;fillColor=none;collapsible=0;dropTarget=0;points=[[0,0.5],[1,0.5]];portConstraint=eastwest;top=0;left=0;right=0;bottom=0;html=1;rounded=0;shadow=0;labelBackgroundColor=none;comic=0;strokeColor=default;strokeWidth=1;align=left;verticalAlign=top;fontFamily=Helvetica;fontSize=12;fontColor=default;" vertex="1" parent="mOd07g0bFqgFP3B_NyHc-99">
          <mxGeometry y="60" width="180" height="30" as="geometry" />
        </mxCell>
        <mxCell id="mOd07g0bFqgFP3B_NyHc-107" value="&lt;b&gt;FK2&lt;/b&gt;" style="shape=partialRectangle;connectable=0;fillColor=none;top=0;left=0;bottom=0;right=0;editable=1;overflow=hidden;html=1;whiteSpace=wrap;rounded=0;shadow=0;labelBackgroundColor=none;comic=0;strokeColor=default;strokeWidth=1;align=left;verticalAlign=top;fontFamily=Helvetica;fontSize=12;fontColor=default;" vertex="1" parent="mOd07g0bFqgFP3B_NyHc-106">
          <mxGeometry width="60" height="30" as="geometry">
            <mxRectangle width="60" height="30" as="alternateBounds" />
          </mxGeometry>
        </mxCell>
        <mxCell id="mOd07g0bFqgFP3B_NyHc-108" value="income_level" style="shape=partialRectangle;connectable=0;fillColor=none;top=0;left=0;bottom=0;right=0;align=left;spacingLeft=6;overflow=hidden;html=1;whiteSpace=wrap;rounded=0;shadow=0;labelBackgroundColor=none;comic=0;strokeColor=default;strokeWidth=1;verticalAlign=top;fontFamily=Helvetica;fontSize=12;fontColor=default;" vertex="1" parent="mOd07g0bFqgFP3B_NyHc-106">
          <mxGeometry x="60" width="120" height="30" as="geometry">
            <mxRectangle width="120" height="30" as="alternateBounds" />
          </mxGeometry>
        </mxCell>
        <mxCell id="mOd07g0bFqgFP3B_NyHc-112" value="workplace" style="shape=table;startSize=30;container=1;collapsible=1;childLayout=tableLayout;fixedRows=1;rowLines=0;fontStyle=1;align=center;resizeLast=1;html=1;whiteSpace=wrap;rounded=0;shadow=0;labelBackgroundColor=none;comic=0;strokeColor=default;strokeWidth=1;verticalAlign=top;fontFamily=Helvetica;fontSize=12;fontColor=default;fillColor=default;" vertex="1" parent="1">
          <mxGeometry x="520" y="280" width="200" height="120" as="geometry" />
        </mxCell>
        <mxCell id="mOd07g0bFqgFP3B_NyHc-113" value="" style="shape=tableRow;horizontal=0;startSize=0;swimlaneHead=0;swimlaneBody=0;fillColor=none;collapsible=0;dropTarget=0;points=[[0,0.5],[1,0.5]];portConstraint=eastwest;top=0;left=0;right=0;bottom=1;html=1;rounded=0;shadow=0;labelBackgroundColor=none;comic=0;strokeColor=default;strokeWidth=1;align=left;verticalAlign=top;fontFamily=Helvetica;fontSize=12;fontColor=default;" vertex="1" parent="mOd07g0bFqgFP3B_NyHc-112">
          <mxGeometry y="30" width="200" height="30" as="geometry" />
        </mxCell>
        <mxCell id="mOd07g0bFqgFP3B_NyHc-114" value="PK" style="shape=partialRectangle;connectable=0;fillColor=none;top=0;left=0;bottom=0;right=0;fontStyle=1;overflow=hidden;html=1;whiteSpace=wrap;rounded=0;shadow=0;labelBackgroundColor=none;comic=0;strokeColor=default;strokeWidth=1;align=left;verticalAlign=top;fontFamily=Helvetica;fontSize=12;fontColor=default;" vertex="1" parent="mOd07g0bFqgFP3B_NyHc-113">
          <mxGeometry width="60" height="30" as="geometry">
            <mxRectangle width="60" height="30" as="alternateBounds" />
          </mxGeometry>
        </mxCell>
        <mxCell id="mOd07g0bFqgFP3B_NyHc-115" value="workplace_id" style="shape=partialRectangle;connectable=0;fillColor=none;top=0;left=0;bottom=0;right=0;align=left;spacingLeft=6;fontStyle=5;overflow=hidden;html=1;whiteSpace=wrap;rounded=0;shadow=0;labelBackgroundColor=none;comic=0;strokeColor=default;strokeWidth=1;verticalAlign=top;fontFamily=Helvetica;fontSize=12;fontColor=default;" vertex="1" parent="mOd07g0bFqgFP3B_NyHc-113">
          <mxGeometry x="60" width="140" height="30" as="geometry">
            <mxRectangle width="140" height="30" as="alternateBounds" />
          </mxGeometry>
        </mxCell>
        <mxCell id="mOd07g0bFqgFP3B_NyHc-116" value="" style="shape=tableRow;horizontal=0;startSize=0;swimlaneHead=0;swimlaneBody=0;fillColor=none;collapsible=0;dropTarget=0;points=[[0,0.5],[1,0.5]];portConstraint=eastwest;top=0;left=0;right=0;bottom=0;html=1;rounded=0;shadow=0;labelBackgroundColor=none;comic=0;strokeColor=default;strokeWidth=1;align=left;verticalAlign=top;fontFamily=Helvetica;fontSize=12;fontColor=default;" vertex="1" parent="mOd07g0bFqgFP3B_NyHc-112">
          <mxGeometry y="60" width="200" height="30" as="geometry" />
        </mxCell>
        <mxCell id="mOd07g0bFqgFP3B_NyHc-117" value="&lt;b&gt;FK1&lt;/b&gt;" style="shape=partialRectangle;connectable=0;fillColor=none;top=0;left=0;bottom=0;right=0;editable=1;overflow=hidden;html=1;whiteSpace=wrap;rounded=0;shadow=0;labelBackgroundColor=none;comic=0;strokeColor=default;strokeWidth=1;align=left;verticalAlign=top;fontFamily=Helvetica;fontSize=12;fontColor=default;" vertex="1" parent="mOd07g0bFqgFP3B_NyHc-116">
          <mxGeometry width="60" height="30" as="geometry">
            <mxRectangle width="60" height="30" as="alternateBounds" />
          </mxGeometry>
        </mxCell>
        <mxCell id="mOd07g0bFqgFP3B_NyHc-118" value="workplace_building_id" style="shape=partialRectangle;connectable=0;fillColor=none;top=0;left=0;bottom=0;right=0;align=left;spacingLeft=6;overflow=hidden;html=1;whiteSpace=wrap;rounded=0;shadow=0;labelBackgroundColor=none;comic=0;strokeColor=default;strokeWidth=1;verticalAlign=top;fontFamily=Helvetica;fontSize=12;fontColor=default;" vertex="1" parent="mOd07g0bFqgFP3B_NyHc-116">
          <mxGeometry x="60" width="140" height="30" as="geometry">
            <mxRectangle width="140" height="30" as="alternateBounds" />
          </mxGeometry>
        </mxCell>
        <mxCell id="mOd07g0bFqgFP3B_NyHc-120" style="shape=tableRow;horizontal=0;startSize=0;swimlaneHead=0;swimlaneBody=0;fillColor=none;collapsible=0;dropTarget=0;points=[[0,0.5],[1,0.5]];portConstraint=eastwest;top=0;left=0;right=0;bottom=0;html=1;rounded=0;shadow=0;labelBackgroundColor=none;comic=0;strokeColor=default;strokeWidth=1;align=left;verticalAlign=top;fontFamily=Helvetica;fontSize=12;fontColor=default;" vertex="1" parent="mOd07g0bFqgFP3B_NyHc-112">
          <mxGeometry y="90" width="200" height="30" as="geometry" />
        </mxCell>
        <mxCell id="mOd07g0bFqgFP3B_NyHc-121" value="FK2" style="shape=partialRectangle;connectable=0;fillColor=none;top=0;left=0;bottom=0;right=0;editable=1;overflow=hidden;html=1;whiteSpace=wrap;rounded=0;shadow=0;labelBackgroundColor=none;comic=0;strokeColor=default;strokeWidth=1;align=left;verticalAlign=top;fontFamily=Helvetica;fontSize=12;fontColor=default;" vertex="1" parent="mOd07g0bFqgFP3B_NyHc-120">
          <mxGeometry width="60" height="30" as="geometry">
            <mxRectangle width="60" height="30" as="alternateBounds" />
          </mxGeometry>
        </mxCell>
        <mxCell id="mOd07g0bFqgFP3B_NyHc-122" value="occupation_id" style="shape=partialRectangle;connectable=0;fillColor=none;top=0;left=0;bottom=0;right=0;align=left;spacingLeft=6;overflow=hidden;html=1;whiteSpace=wrap;rounded=0;shadow=0;labelBackgroundColor=none;comic=0;strokeColor=default;strokeWidth=1;verticalAlign=top;fontFamily=Helvetica;fontSize=12;fontColor=default;" vertex="1" parent="mOd07g0bFqgFP3B_NyHc-120">
          <mxGeometry x="60" width="140" height="30" as="geometry">
            <mxRectangle width="140" height="30" as="alternateBounds" />
          </mxGeometry>
        </mxCell>
        <mxCell id="mOd07g0bFqgFP3B_NyHc-126" value="" style="edgeStyle=entityRelationEdgeStyle;fontSize=12;html=1;endArrow=ERzeroToMany;startArrow=ERmandOne;rounded=0;exitX=1;exitY=0.5;exitDx=0;exitDy=0;entryX=0;entryY=0.5;entryDx=0;entryDy=0;" edge="1" parent="1" source="mOd07g0bFqgFP3B_NyHc-80" target="mOd07g0bFqgFP3B_NyHc-120">
          <mxGeometry width="100" height="100" relative="1" as="geometry">
            <mxPoint x="390" y="240" as="sourcePoint" />
            <mxPoint x="470" y="230" as="targetPoint" />
            <Array as="points">
              <mxPoint x="470" y="15" />
              <mxPoint x="470" y="15" />
              <mxPoint x="460" y="5" />
            </Array>
          </mxGeometry>
        </mxCell>
        <mxCell id="mOd07g0bFqgFP3B_NyHc-127" value="" style="edgeStyle=entityRelationEdgeStyle;fontSize=12;html=1;endArrow=ERzeroToMany;startArrow=ERmandOne;rounded=0;exitX=1;exitY=0.5;exitDx=0;exitDy=0;entryX=0;entryY=0.5;entryDx=0;entryDy=0;" edge="1" parent="1" source="mOd07g0bFqgFP3B_NyHc-60" target="mOd07g0bFqgFP3B_NyHc-116">
          <mxGeometry width="100" height="100" relative="1" as="geometry">
            <mxPoint x="400" y="355" as="sourcePoint" />
            <mxPoint x="540" y="495" as="targetPoint" />
            <Array as="points">
              <mxPoint x="490" y="125" />
              <mxPoint x="490" y="125" />
              <mxPoint x="480" y="115" />
            </Array>
          </mxGeometry>
        </mxCell>
      </root>
    </mxGraphModel>
  </diagram>
</mxfile>
